HIERARCHY
ROOT Hips
{
	OFFSET 0.000000 83.214638 0.000000
	CHANNELS 6 Xposition Yposition Zposition Xrotation Yrotation Zrotation
	JOINT Pelvis
	{
		OFFSET 0.000000 0.000000 0.000000
		CHANNELS 3 Xrotation Yrotation Zrotation
		JOINT LeftUpLeg
		{
			OFFSET 8.479700 -4.795502 -0.379100
			CHANNELS 3 Xrotation Yrotation Zrotation
			JOINT LeftLeg
			{
				OFFSET 0.024144 -32.555107 0.112900
				CHANNELS 3 Xrotation Yrotation Zrotation
				JOINT LeftFoot
				{
					OFFSET -0.024144 -32.638630 -3.012600
					CHANNELS 3 Xrotation Yrotation Zrotation
					JOINT LeftToeBase
					{
						OFFSET 0.970200 -13.225400 11.864200
						CHANNELS 3 Xrotation Yrotation Zrotation
						End Site
						{
							OFFSET 0.000000 12.319262 0.000000
						}
					}
					JOINT LFootTongue
					{
						OFFSET 1.142400 -1.059800 6.665200
						CHANNELS 3 Xrotation Yrotation Zrotation
						End Site
						{
							OFFSET 0.000000 12.319262 0.000000
						}
					}
				}
				JOINT LeftPantLeg
				{
					OFFSET 0.918482 -16.533964 -2.284700
					CHANNELS 3 Xrotation Yrotation Zrotation
					End Site
					{
						OFFSET 0.350399 24.744368 0.000000
					}
				}
			}
		}
		JOINT RightUpLeg
		{
			OFFSET -8.479700 -4.795502 -0.379100
			CHANNELS 3 Xrotation Yrotation Zrotation
			JOINT RightLeg
			{
				OFFSET -0.023144 -32.555092 0.112900
				CHANNELS 3 Xrotation Yrotation Zrotation
				JOINT RightFoot
				{
					OFFSET 0.023144 -32.638641 -3.012700
					CHANNELS 3 Xrotation Yrotation Zrotation
					JOINT RightToeBase
					{
						OFFSET -0.970200 -13.225400 11.864200
						CHANNELS 3 Xrotation Yrotation Zrotation
						End Site
						{
							OFFSET 0.000000 12.319244 0.000000
						}
					}
					JOINT RFootTongue
					{
						OFFSET -1.142200 -1.059800 6.665200
						CHANNELS 3 Xrotation Yrotation Zrotation
						End Site
						{
							OFFSET 0.000000 12.319243 0.000000
						}
					}
				}
				JOINT RightPantLeg
				{
					OFFSET -0.919482 -16.533978 -2.284800
					CHANNELS 3 Xrotation Yrotation Zrotation
					End Site
					{
						OFFSET -0.350400 24.744419 0.000000
					}
				}
			}
		}
	}
	JOINT Spine
	{
		OFFSET 0.000000 7.722000 1.166200
		CHANNELS 3 Xrotation Yrotation Zrotation
		JOINT Spine1
		{
			OFFSET 0.000000 12.024101 0.248800
			CHANNELS 3 Xrotation Yrotation Zrotation
			JOINT Spine2
			{
				OFFSET 0.000000 11.502998 -0.491200
				CHANNELS 3 Xrotation Yrotation Zrotation
				JOINT Neck
				{
					OFFSET 0.000000 18.430702 -3.123100
					CHANNELS 3 Xrotation Yrotation Zrotation
					JOINT Head
					{
						OFFSET 0.000000 9.051102 1.034000
						CHANNELS 3 Xrotation Yrotation Zrotation
						JOINT HairB
						{
							OFFSET 0.208400 24.786102 24.822300
							CHANNELS 3 Xrotation Yrotation Zrotation
							End Site
							{
								OFFSET 0.000000 32.263779 0.000000
							}
						}
						JOINT HairA
						{
							OFFSET -7.081100 24.428299 23.196600
							CHANNELS 3 Xrotation Yrotation Zrotation
							End Site
							{
								OFFSET 0.000000 32.263779 0.000000
							}
						}
						JOINT Hat
						{
							OFFSET 16.728800 15.048294 -15.439601
							CHANNELS 3 Xrotation Yrotation Zrotation
							End Site
							{
								OFFSET 0.000000 32.263779 0.000000
							}
						}
					}
				}
				JOINT LeftShoulder
				{
					OFFSET 6.197800 13.665199 -4.064700
					CHANNELS 3 Xrotation Yrotation Zrotation
					JOINT LeftArm
					{
						OFFSET 7.778100 -0.187103 -1.709300
						CHANNELS 3 Xrotation Yrotation Zrotation
						JOINT LeftForeArm
						{
							OFFSET 22.049376 0.000000 0.000000
							CHANNELS 3 Xrotation Yrotation Zrotation
							JOINT LeftHand
							{
								OFFSET 23.009392 0.000000 0.000000
								CHANNELS 3 Xrotation Yrotation Zrotation
								JOINT LeftHandThumb1
								{
									OFFSET 3.507191 -2.063065 3.133727
									CHANNELS 3 Xrotation Yrotation Zrotation
									JOINT LeftHandThumb2
									{
										OFFSET 3.101337 -1.790558 1.790558
										CHANNELS 3 Xrotation Yrotation Zrotation
										JOINT LeftHandThumb3
										{
											OFFSET 3.058640 -1.765907 1.765906
											CHANNELS 3 Xrotation Yrotation Zrotation
											End Site
											{
												OFFSET -0.415260 3.926476 -0.049563
											}
										}
									}
								}
								JOINT LeftHandIndex1
								{
									OFFSET 11.334419 -0.901459 3.706815
									CHANNELS 3 Xrotation Yrotation Zrotation
									JOINT LeftHandIndex2
									{
										OFFSET 3.283112 0.000000 0.000000
										CHANNELS 3 Xrotation Yrotation Zrotation
										JOINT LeftHandIndex3
										{
											OFFSET 3.323853 0.000000 0.000000
											CHANNELS 3 Xrotation Yrotation Zrotation
											End Site
											{
												OFFSET -1.135597 3.097809 0.402452
											}
										}
									}
								}
								JOINT LeftHandMiddle1
								{
									OFFSET 11.335861 0.000000 0.000000
									CHANNELS 3 Xrotation Yrotation Zrotation
									JOINT LeftHandMiddle2
									{
										OFFSET 3.410492 0.000000 0.000000
										CHANNELS 3 Xrotation Yrotation Zrotation
										JOINT LeftHandMiddle3
										{
											OFFSET 3.312172 0.000000 0.000000
											CHANNELS 3 Xrotation Yrotation Zrotation
											End Site
											{
												OFFSET -1.150200 3.080154 0.400270
											}
										}
									}
								}
								JOINT LeftHandRing1
								{
									OFFSET 11.514786 -0.013176 -3.003090
									CHANNELS 3 Xrotation Yrotation Zrotation
									JOINT LeftHandRing2
									{
										OFFSET 3.053307 0.000000 0.000000
										CHANNELS 3 Xrotation Yrotation Zrotation
										JOINT LeftHandRing3
										{
											OFFSET 3.295807 0.000000 0.000000
											CHANNELS 3 Xrotation Yrotation Zrotation
											End Site
											{
												OFFSET -1.281006 3.013344 0.375733
											}
										}
									}
								}
								JOINT LeftHandPinky1
								{
									OFFSET 10.518692 -0.960396 -5.730441
									CHANNELS 3 Xrotation Yrotation Zrotation
									JOINT LeftHandPinky2
									{
										OFFSET 2.861649 0.000000 0.000000
										CHANNELS 3 Xrotation Yrotation Zrotation
										JOINT LeftHandPinky3
										{
											OFFSET 2.863380 0.000000 0.000000
											CHANNELS 3 Xrotation Yrotation Zrotation
											End Site
											{
												OFFSET -0.843597 2.711159 0.369971
											}
										}
									}
								}
							}
							JOINT LSleeve
							{
								OFFSET 6.676277 -0.344902 -1.011730
								CHANNELS 3 Xrotation Yrotation Zrotation
								End Site
								{
									OFFSET 0.000000 14.885353 0.000000
								}
							}
						}
					}
				}
				JOINT RightShoulder
				{
					OFFSET -6.197800 13.665199 -4.064700
					CHANNELS 3 Xrotation Yrotation Zrotation
					JOINT RightArm
					{
						OFFSET -7.778100 -0.187103 -1.709300
						CHANNELS 3 Xrotation Yrotation Zrotation
						JOINT RightForeArm
						{
							OFFSET -22.049376 0.000000 0.000000
							CHANNELS 3 Xrotation Yrotation Zrotation
							JOINT RightHand
							{
								OFFSET -23.009392 0.000000 0.000000
								CHANNELS 3 Xrotation Yrotation Zrotation
								JOINT RightHandThumb1
								{
									OFFSET -3.507191 -2.063065 3.133727
									CHANNELS 3 Xrotation Yrotation Zrotation
									JOINT RightHandThumb2
									{
										OFFSET -3.101337 -1.790558 1.790558
										CHANNELS 3 Xrotation Yrotation Zrotation
										JOINT RightHandThumb3
										{
											OFFSET -3.058640 -1.765907 1.765906
											CHANNELS 3 Xrotation Yrotation Zrotation
											End Site
											{
												OFFSET 0.415260 3.926476 -0.049563
											}
										}
									}
								}
								JOINT RightHandIndex1
								{
									OFFSET -11.334419 -0.901459 3.706815
									CHANNELS 3 Xrotation Yrotation Zrotation
									JOINT RightHandIndex2
									{
										OFFSET -3.283112 0.000000 0.000000
										CHANNELS 3 Xrotation Yrotation Zrotation
										JOINT RightHandIndex3
										{
											OFFSET -3.323853 0.000000 0.000000
											CHANNELS 3 Xrotation Yrotation Zrotation
											End Site
											{
												OFFSET 1.135597 3.097809 0.402452
											}
										}
									}
								}
								JOINT RightHandMiddle1
								{
									OFFSET -11.335861 0.000000 0.000000
									CHANNELS 3 Xrotation Yrotation Zrotation
									JOINT RightHandMiddle2
									{
										OFFSET -3.410492 0.000000 0.000000
										CHANNELS 3 Xrotation Yrotation Zrotation
										JOINT RightHandMiddle3
										{
											OFFSET -3.312172 0.000000 0.000000
											CHANNELS 3 Xrotation Yrotation Zrotation
											End Site
											{
												OFFSET 1.150200 3.080154 0.400270
											}
										}
									}
								}
								JOINT RightHandRing1
								{
									OFFSET -11.514786 -0.013176 -3.003090
									CHANNELS 3 Xrotation Yrotation Zrotation
									JOINT RightHandRing2
									{
										OFFSET -3.053307 0.000000 0.000000
										CHANNELS 3 Xrotation Yrotation Zrotation
										JOINT RightHandRing3
										{
											OFFSET -3.295807 0.000000 0.000000
											CHANNELS 3 Xrotation Yrotation Zrotation
											End Site
											{
												OFFSET 1.281006 3.013344 0.375733
											}
										}
									}
								}
								JOINT RightHandPinky1
								{
									OFFSET -10.518692 -0.960396 -5.730441
									CHANNELS 3 Xrotation Yrotation Zrotation
									JOINT RightHandPinky2
									{
										OFFSET -2.861649 0.000000 0.000000
										CHANNELS 3 Xrotation Yrotation Zrotation
										JOINT RightHandPinky3
										{
											OFFSET -2.863380 0.000000 0.000000
											CHANNELS 3 Xrotation Yrotation Zrotation
											End Site
											{
												OFFSET 0.843597 2.711159 0.369971
											}
										}
									}
								}
							}
							JOINT RSleeve
							{
								OFFSET -6.676277 -0.344902 -1.011730
								CHANNELS 3 Xrotation Yrotation Zrotation
								End Site
								{
									OFFSET 0.000000 14.885353 0.000000
								}
							}
						}
					}
				}
				JOINT Backpack
				{
					OFFSET 0.000000 -2.471497 36.677502
					CHANNELS 3 Xrotation Yrotation Zrotation
					End Site
					{
						OFFSET 0.000000 20.427315 0.000000
					}
				}
				JOINT Hood
				{
					OFFSET 0.000000 18.754097 -10.431000
					CHANNELS 3 Xrotation Yrotation Zrotation
					JOINT Hood1
					{
						OFFSET 0.000000 -5.011002 -7.685901
						CHANNELS 3 Xrotation Yrotation Zrotation
						End Site
						{
							OFFSET 0.000000 9.175140 0.000000
						}
					}
				}
				JOINT LHoodieString
				{
					OFFSET 5.250500 16.397697 3.089900
					CHANNELS 3 Xrotation Yrotation Zrotation
					JOINT LHoodieString1
					{
						OFFSET 0.257700 -6.364304 3.694600
						CHANNELS 3 Xrotation Yrotation Zrotation
						JOINT LHoodieString2
						{
							OFFSET 0.000000 -9.643799 2.679100
							CHANNELS 3 Xrotation Yrotation Zrotation
							End Site
							{
								OFFSET 0.000000 10.009018 0.000000
							}
						}
					}
				}
				JOINT RHoodieString
				{
					OFFSET -5.250500 16.397697 3.089900
					CHANNELS 3 Xrotation Yrotation Zrotation
					JOINT RHoodieString1
					{
						OFFSET -0.257700 -6.364304 3.694600
						CHANNELS 3 Xrotation Yrotation Zrotation
						JOINT RHoodieString2
						{
							OFFSET 0.000000 -9.643799 2.679100
							CHANNELS 3 Xrotation Yrotation Zrotation
							End Site
							{
								OFFSET 0.000000 10.009018 0.000000
							}
						}
					}
				}
			}
			JOINT LBackpack_Strap
			{
				OFFSET 15.223200 -7.719803 -6.610900
				CHANNELS 3 Xrotation Yrotation Zrotation
				End Site
				{
					OFFSET 0.000000 16.040596 0.000000
				}
			}
			JOINT RBackpack_Strap
			{
				OFFSET -15.223000 -7.719803 -6.610900
				CHANNELS 3 Xrotation Yrotation Zrotation
				End Site
				{
					OFFSET 0.000000 16.040596 0.000000
				}
			}
		}
	}
	JOINT BoyFacialAnim_Joint
	{
		OFFSET 1.000000 -82.208099 -1.550900
		CHANNELS 3 Xrotation Yrotation Zrotation
		End Site
		{
			OFFSET 0.000000 30.012791 0.000000
		}
	}
}
MOTION
Frames: 4
Frame Time: 0.033333
-0.388944 71.045082 0.765953 -6.479555 -46.177277 -1.111125 -0.000000 0.000001 -0.000000 -31.016982 8.670298 16.604161 58.224439 -6.385670 4.352759 -25.115323 -8.068351 -13.689282 0.000000 -0.000000 -0.000000 0.000000 -0.000000 0.000000 -0.000000 -0.000001 0.000001 -11.768386 -14.334798 -34.079465 41.752011 -2.282311 -7.893879 -20.873640 -5.877176 24.529011 0.000000 -0.000000 0.000001 0.000000 -0.000000 0.000001 -0.000000 -0.000000 -0.000003 7.539704 7.284466 0.065094 0.568843 0.986072 -0.147613 0.571692 0.982848 -0.153489 6.213363 2.371696 -3.823404 18.773306 6.630097 -11.263349 -0.000001 0.000000 -0.000000 -0.000001 0.000000 -0.000000 -0.000001 0.000000 -0.000000 1.350558 4.499060 -8.659602 -27.870010 -17.500326 -61.181925 0.000008 -113.390559 -0.000001 22.039357 3.770888 5.072174 7.848545 10.285180 -7.819782 19.113552 25.088859 -4.277921 0.000001 -0.000002 -0.000000 4.948250 6.605404 -73.648653 8.165016 6.760952 -100.777795 -0.000002 0.000001 -0.000003 4.594223 6.492088 -71.068467 8.420075 6.707713 -102.952760 0.000001 -0.000002 -0.000000 5.064719 6.638288 -74.926458 7.796328 6.820368 -97.660736 -0.000000 -0.000000 0.000001 5.967040 6.846540 -77.445616 5.595027 2.674004 -79.236096 0.000000 0.000001 -0.000000 -0.000001 0.000001 0.000001 3.025570 11.967621 -5.320787 -41.198144 37.009366 79.340516 0.000097 108.404487 -0.000079 -8.660635 15.997169 -17.125337 6.801441 -10.900321 7.985616 19.141696 -27.885323 3.998678 0.000002 0.000004 -0.000001 5.720068 -6.839362 79.794348 8.318732 -6.812391 101.403031 0.000001 -0.000001 0.000001 5.760458 -6.846653 80.562040 8.164434 -6.841473 100.105076 0.000002 0.000000 -0.000002 5.204730 -6.727306 75.997623 7.669987 -6.910825 95.976992 -0.000000 0.000000 -0.000001 4.789312 -6.605860 71.856131 6.550518 -6.936909 86.710460 -0.000002 0.000001 -0.000001 0.000000 -0.000004 0.000000 0.000000 -0.000001 -0.000000 0.000000 -0.000001 -0.000000 0.000000 -0.000001 -0.000000 0.000000 -0.000001 -0.000000 0.000000 -0.000001 -0.000000 -0.000000 0.000002 -0.000000 0.000000 -0.000001 -0.000000 0.000000 -0.000001 -0.000000 -0.000000 0.000002 -0.000000 0.000000 -0.000001 0.000001 0.000000 -0.000001 0.000001 -0.000000 0.000001 -0.000000 
-0.571697 71.502045 0.480026 -6.278576 -45.993094 -1.097248 0.000000 -0.000000 0.000001 -30.752957 9.454050 17.435794 56.506268 -7.310060 4.157872 -24.086568 -8.647299 -13.555743 0.000000 0.000000 0.000000 0.000000 0.000000 0.000000 0.000001 -0.000001 0.000001 -12.485916 -14.623742 -34.593918 41.831258 -0.632784 -7.374909 -18.026117 -5.479911 25.551804 0.000001 -0.000001 0.000001 0.000001 -0.000001 0.000001 0.000003 0.000000 -0.000000 7.502931 7.397220 -0.071338 0.725544 1.002322 -0.244875 0.729744 0.998033 -0.248574 6.374318 2.337601 -3.896773 18.711228 6.437283 -10.926553 0.000000 0.000001 -0.000001 0.000000 0.000001 -0.000001 0.000000 0.000001 -0.000001 1.353394 4.766579 -8.720694 -27.320425 -16.998425 -61.128301 -0.000046 -112.928340 -0.000036 22.830184 5.066503 3.140443 7.848550 10.285182 -7.819776 19.113547 25.088864 -4.277926 0.000001 -0.000001 -0.000002 4.948253 6.605407 -73.648659 8.165016 6.760949 -100.777802 -0.000001 -0.000002 -0.000002 4.594228 6.492089 -71.068467 8.420072 6.707711 -102.952760 -0.000000 -0.000001 0.000009 5.064724 6.638290 -74.926451 7.796327 6.820369 -97.660729 0.000001 0.000001 -0.000002 5.967043 6.846544 -77.445616 5.595027 2.674006 -79.236096 0.000002 0.000002 -0.000002 0.000001 -0.000001 0.000004 3.057845 12.172914 -5.328076 -40.432387 36.730213 79.159645 -0.000096 107.723674 0.000088 -9.099507 15.853996 -17.317222 6.801441 -10.900326 7.985616 19.141697 -27.885318 3.998677 0.000001 0.000001 0.000001 5.720066 -6.839362 79.794348 8.318736 -6.812391 101.403024 -0.000000 0.000000 0.000004 5.760456 -6.846656 80.562040 8.164431 -6.841471 100.105076 -0.000001 -0.000001 -0.000002 5.204729 -6.727311 75.997623 7.669987 -6.910829 95.976992 0.000001 0.000003 0.000001 4.789314 -6.605859 71.856138 6.550517 -6.936910 86.710460 0.000000 -0.000001 0.000003 -0.000000 -0.000003 0.000001 0.000000 -0.000002 0.000000 0.000000 -0.000002 0.000000 0.000000 -0.000002 0.000000 0.000000 -0.000002 0.000000 0.000000 -0.000002 -0.000000 -0.000000 -0.000001 0.000000 0.000000 -0.000002 0.000000 0.000000 -0.000002 -0.000000 -0.000000 -0.000001 0.000000 0.000000 0.000001 0.000000 0.000000 0.000001 0.000000 0.000000 -0.000000 0.000001 
-0.902763 72.396301 -0.168848 -5.744498 -45.708111 -1.140559 -0.000000 -0.000003 -0.000000 -30.125188 10.125136 18.200238 53.089469 -7.967469 4.376382 -22.035459 -8.977309 -14.020378 -0.000000 -0.000002 0.000000 -0.000000 -0.000002 0.000000 -0.000000 -0.000003 -0.000000 -13.006029 -14.813497 -34.356651 41.238701 1.056803 -6.457313 -14.084255 -4.697446 26.166397 -0.000000 0.000000 0.000000 -0.000000 0.000000 0.000000 -0.000002 -0.000001 -0.000000 7.261905 7.537122 -0.186289 0.812943 1.021027 -0.303706 0.817920 1.016223 -0.305796 6.711287 2.289199 -3.956177 18.596401 6.279249 -10.433923 0.000001 -0.000001 0.000000 0.000001 -0.000001 0.000000 0.000001 -0.000001 0.000000 1.341893 4.809331 -8.696695 -27.776935 -16.542513 -60.383496 -0.000039 -113.626481 -0.000039 23.271180 5.864289 2.004959 7.848547 10.285183 -7.819777 19.113545 25.088868 -4.277924 0.000000 -0.000001 0.000002 4.948250 6.605407 -73.648659 8.165016 6.760949 -100.777802 -0.000003 0.000002 0.000000 4.594223 6.492091 -71.068460 8.420075 6.707714 -102.952760 0.000003 -0.000001 0.000002 5.064720 6.638290 -74.926465 7.796325 6.820368 -97.660729 -0.000000 -0.000001 -0.000006 5.967042 6.846544 -77.445609 5.595029 2.674007 -79.236102 -0.000002 -0.000000 -0.000000 0.000001 0.000000 0.000001 3.317283 12.804037 -5.174127 -41.064791 35.789973 78.507082 0.000101 107.681983 -0.000102 -10.062158 15.125309 -17.568802 6.801443 -10.900322 7.985617 19.141694 -27.885318 3.998674 -0.000004 0.000001 0.000000 5.720068 -6.839360 79.794354 8.318731 -6.812392 101.403031 0.000001 -0.000002 0.000002 5.760457 -6.846653 80.562040 8.164432 -6.841472 100.105076 -0.000001 0.000000 -0.000000 5.204731 -6.727305 75.997623 7.669988 -6.910826 95.976985 0.000000 -0.000002 -0.000004 4.789312 -6.605857 71.856138 6.550515 -6.936908 86.710467 0.000001 -0.000001 0.000002 -0.000000 -0.000005 0.000000 -0.000000 0.000002 -0.000000 -0.000000 0.000002 -0.000000 -0.000000 0.000002 -0.000000 -0.000000 0.000002 -0.000000 -0.000000 0.000002 -0.000000 -0.000000 0.000000 -0.000000 -0.000000 0.000002 -0.000000 -0.000000 0.000002 -0.000000 -0.000000 0.000000 -0.000000 -0.000000 0.000000 -0.000000 -0.000000 0.000000 -0.000000 -0.000000 -0.000003 -0.000000 
-1.395010 73.583450 -1.207520 -5.113901 -45.098882 -1.338072 0.000000 -0.000002 0.000000 -29.715595 10.387469 18.847567 48.934805 -8.179133 5.123438 -18.086664 -9.681552 -15.012635 -0.000000 -0.000002 0.000000 -0.000000 -0.000002 -0.000000 -0.000000 0.000002 -0.000001 -12.714905 -15.064631 -33.034521 39.829237 2.232915 -5.150537 -10.663883 -3.832318 25.818636 0.000001 -0.000001 0.000001 0.000001 -0.000001 0.000001 -0.000000 -0.000001 -0.000000 6.892382 7.509044 -0.321526 0.858553 1.016296 -0.263886 0.862684 1.012416 -0.264660 7.215837 2.223993 -4.044434 18.302655 6.080196 -9.636386 -0.000000 -0.000001 -0.000000 -0.000000 -0.000001 -0.000000 -0.000000 -0.000001 -0.000000 1.339011 4.423248 -8.605750 -29.740799 -16.299732 -59.204667 0.000072 -114.917345 0.000071 23.385063 6.367858 1.997958 7.848548 10.285182 -7.819779 19.113545 25.088863 -4.277922 0.000002 -0.000004 0.000002 4.948250 6.605403 -73.648653 8.165015 6.760949 -100.777802 -0.000003 0.000003 -0.000001 4.594223 6.492085 -71.068460 8.420077 6.707713 -102.952760 0.000002 0.000001 0.000002 5.064721 6.638292 -74.926458 7.796326 6.820370 -97.660729 -0.000000 -0.000001 -0.000002 5.967042 6.846544 -77.445609 5.595023 2.674007 -79.236102 -0.000003 0.000001 -0.000000 0.000001 0.000001 0.000002 3.714435 13.716292 -4.936039 -42.835361 34.288574 77.482745 0.000094 108.413387 -0.000097 -11.244061 13.952671 -17.828298 6.801442 -10.900322 7.985614 19.141694 -27.885321 3.998679 -0.000001 -0.000000 0.000001 5.720067 -6.839359 79.794348 8.318731 -6.812390 101.403024 -0.000001 -0.000001 0.000003 5.760456 -6.846655 80.562040 8.164431 -6.841474 100.105076 -0.000000 0.000002 0.000000 5.204730 -6.727304 75.997623 7.669986 -6.910824 95.976985 0.000001 0.000000 0.000004 4.789313 -6.605859 71.856131 6.550519 -6.936909 86.710460 -0.000000 -0.000002 -0.000000 0.000001 -0.000001 -0.000003 -0.000000 -0.000004 0.000000 -0.000000 -0.000004 0.000000 -0.000000 -0.000004 0.000000 -0.000000 -0.000004 0.000000 -0.000000 -0.000004 0.000000 -0.000000 -0.000001 -0.000000 -0.000000 -0.000004 0.000000 -0.000000 -0.000004 0.000000 -0.000000 -0.000001 -0.000000 -0.000000 -0.000001 -0.000000 -0.000000 -0.000001 -0.000000 0.000000 -0.000002 0.000000 
